<svg width="343" height="75" viewBox="0 0 343 75" fill="none" xmlns="http://www.w3.org/2000/svg">
<g filter="url(#filter0_d_6_5)">
<path d="M44.625 60.2188C39.875 62.1771 34.7396 63.1562 29.2188 63.1562C21.4271 63.1562 15.3542 61.0208 11 56.75C6.64583 52.4792 4.46875 46.5104 4.46875 38.8438C4.46875 31.1354 6.59375 25.1667 10.8438 20.9375C15.0938 16.7083 21.0938 14.5938 28.8438 14.5938C33.5521 14.5938 38.5417 15.2708 43.8125 16.625V26.1562H39.1562V25.5625C39.1562 22.7917 38.7083 21.0312 37.8125 20.2812C35.7292 18.5312 32.7812 17.6562 28.9688 17.6562C24.4271 17.6562 20.9167 19.4896 18.4375 23.1562C15.9583 26.8021 14.7188 31.9792 14.7188 38.6875C14.7188 45.5417 16.1042 50.6875 18.875 54.125C21.6667 57.5625 25.8333 59.2812 31.375 59.2812C35.2083 59.2812 39.625 58.1354 44.625 55.8438V60.2188ZM74.0938 62V55.5312C72.6979 57.9479 71.0208 59.7604 69.0625 60.9688C67.1042 62.1771 64.8646 62.7812 62.3438 62.7812C59.2812 62.7812 56.875 61.8229 55.125 59.9062C53.375 57.9896 52.5 55.3438 52.5 51.9688V36.75C52.5 33.9583 52.2917 32.2812 51.875 31.7188C51.4583 31.1354 50.1979 30.7708 48.0938 30.625L47.5 30.5938V27.6875H61.75V50.9062C61.75 53.3021 62.0625 54.9583 62.6875 55.875C63.3125 56.7708 64.4271 57.2188 66.0312 57.2188C67.5104 57.2188 68.9167 56.7917 70.25 55.9375C71.6042 55.0833 72.8854 53.8125 74.0938 52.125V36.75C74.0938 33.9583 73.8854 32.2812 73.4688 31.7188C73.0521 31.1354 71.7812 30.7708 69.6562 30.625L69.0938 30.5938V27.6875H83.3438V52.9375C83.3438 55.7292 83.5521 57.4167 83.9688 58C84.4062 58.5625 85.6771 58.9167 87.7812 59.0625L88.375 59.0938V62H74.0938ZM92.8438 60.4375V51.5938H97.0938L97.125 52.1562C97.25 54.7396 97.6458 56.3958 98.3125 57.125C99.9792 58.9583 102.448 59.875 105.719 59.875C107.302 59.875 108.635 59.3646 109.719 58.3438C110.823 57.3229 111.375 56.0625 111.375 54.5625C111.375 52.25 109.427 50.3229 105.531 48.7812L102.688 47.6562C96.125 45.0521 92.8438 41.5417 92.8438 37.125C92.8438 34 94.1042 31.5208 96.625 29.6875C99.1667 27.8333 102.594 26.9062 106.906 26.9062C110.323 26.9062 113.885 27.4479 117.594 28.5312V36.75H113.344L113.312 36.1562L113.25 34.6562C113.25 31.4271 111.365 29.8125 107.594 29.8125C105.948 29.8125 104.552 30.3438 103.406 31.4062C102.26 32.4688 101.688 33.7708 101.688 35.3125C101.688 36.6042 102.104 37.625 102.938 38.375C103.792 39.1042 105.531 39.9688 108.156 40.9688L110.969 42.0625C117.365 44.5208 120.562 47.8125 120.562 51.9375C120.562 55.0833 119.208 57.6771 116.5 59.7188C113.792 61.7604 110.354 62.7812 106.188 62.7812C101.021 62.7812 96.5729 62 92.8438 60.4375ZM146.188 61.7188C144.25 62.4271 142.354 62.7812 140.5 62.7812C136.646 62.7812 133.75 61.8333 131.812 59.9375C129.896 58.0208 128.938 55.1562 128.938 51.3438V30.7812H124.688V27.6875H128.938V21.9062L138.188 20.2812V27.6875H145.781V30.7812H138.188V51.5625C138.188 54.625 138.49 56.6458 139.094 57.625C139.698 58.6042 140.948 59.0938 142.844 59.0938C143.885 59.0938 145 58.8542 146.188 58.375V61.7188ZM167.594 62.7812C162.052 62.7812 157.688 61.1875 154.5 58C151.333 54.7917 149.75 50.4062 149.75 44.8438C149.75 39.2812 151.333 34.9062 154.5 31.7188C157.688 28.5104 162.052 26.9062 167.594 26.9062C173.115 26.9062 177.458 28.5104 180.625 31.7188C183.812 34.9062 185.406 39.2812 185.406 44.8438C185.406 50.4062 183.812 54.7917 180.625 58C177.458 61.1875 173.115 62.7812 167.594 62.7812ZM167.594 59.5C170.135 59.5 172.031 58.2812 173.281 55.8438C174.552 53.3854 175.188 49.7188 175.188 44.8438C175.188 39.9479 174.552 36.2812 173.281 33.8438C172.031 31.4062 170.135 30.1875 167.594 30.1875C165.052 30.1875 163.146 31.4062 161.875 33.8438C160.604 36.2812 159.969 39.9479 159.969 44.8438C159.969 49.7188 160.604 53.3854 161.875 55.8438C163.146 58.2812 165.052 59.5 167.594 59.5ZM200.469 34.4375C202.26 32.0625 204.125 30.2812 206.062 29.0938C208.021 27.9062 210.062 27.3125 212.188 27.3125C214.667 27.3125 216.635 27.9062 218.094 29.0938C219.552 30.2812 220.49 32.0625 220.906 34.4375C222.885 32.0625 224.885 30.2812 226.906 29.0938C228.927 27.9062 230.958 27.3125 233 27.3125C239.083 27.3125 242.125 30.6458 242.125 37.3125V53.9062C242.125 56.7396 242.344 58.4271 242.781 58.9688C243.24 59.4896 244.75 59.8438 247.312 60.0312L247.906 60.0625V62H230.156V60.0625L230.75 60.0312C233.312 59.8438 234.812 59.4896 235.25 58.9688C235.708 58.4271 235.938 56.7396 235.938 53.9062V38.4375C235.938 35.75 235.583 33.8958 234.875 32.875C234.188 31.8333 232.948 31.3125 231.156 31.3125C229.656 31.3125 228.083 31.75 226.438 32.625C224.812 33.5 223.104 34.8125 221.312 36.5625V53.9062C221.312 56.7188 221.542 58.4062 222 58.9688C222.458 59.5104 223.958 59.8646 226.5 60.0312L227.094 60.0625V62H209.344V60.0625L209.938 60.0312C212.5 59.8646 214 59.5104 214.438 58.9688C214.896 58.4271 215.125 56.7396 215.125 53.9062V38.4375C215.125 35.7917 214.781 33.9479 214.094 32.9062C213.406 31.8438 212.198 31.3125 210.469 31.3125C208.844 31.3125 207.198 31.75 205.531 32.625C203.865 33.5 202.177 34.8125 200.469 36.5625V53.9062C200.469 56.7396 200.698 58.4271 201.156 58.9688C201.615 59.5104 203.125 59.8646 205.688 60.0312L206.281 60.0625V62H188.531V60.0625L189.125 60.0312C191.646 59.8646 193.135 59.5104 193.594 58.9688C194.073 58.4062 194.312 56.7188 194.312 53.9062V36.1562C194.312 33.3438 194.073 31.6667 193.594 31.125C193.135 30.5833 191.646 30.2188 189.125 30.0312L188.531 30V28.0625H200.469V34.4375ZM272 57.3438C268.333 60.9688 264.708 62.7812 261.125 62.7812C258.25 62.7812 255.854 61.875 253.938 60.0625C252.021 58.2292 251.062 55.9375 251.062 53.1875C251.062 49.9792 252.312 47.375 254.812 45.375C257.667 43.0833 262.5 41.9375 269.312 41.9375H270.594V37.7188C270.594 32.3646 268.562 29.6875 264.5 29.6875C262.604 29.6875 260.927 30.2708 259.469 31.4375C258.615 32.1458 258.073 33.5938 257.844 35.7812L257.812 36.375H253.625V30.1562C257.958 28.2604 261.979 27.3125 265.688 27.3125C273.062 27.3125 276.75 30.6979 276.75 37.4688V52.5938C276.75 55.3021 276.979 57.2083 277.438 58.3125C277.917 59.4167 278.74 59.9688 279.906 59.9688C280.323 59.9688 280.875 59.875 281.562 59.6875L281.75 62C280.271 62.5208 278.948 62.7812 277.781 62.7812C274.74 62.7812 272.812 60.9688 272 57.3438ZM270.594 56.6562V43.875H269.156C265.531 43.875 262.698 44.625 260.656 46.125C258.615 47.625 257.594 49.6875 257.594 52.3125C257.594 54.2708 258.229 55.8958 259.5 57.1875C260.771 58.4792 262.354 59.125 264.25 59.125C266.042 59.125 268.156 58.3021 270.594 56.6562ZM305.219 61.8125C303.656 62.4583 302.167 62.7812 300.75 62.7812C297.146 62.7812 294.51 61.875 292.844 60.0625C291.198 58.25 290.375 55.3646 290.375 51.4062V30.5938H285.375V28.0625H290.375V21.9062L296.562 20.375V28.0625H306V30.5938H296.562V52.2188C296.562 55.1354 296.948 57.2083 297.719 58.4375C298.49 59.6667 299.802 60.2812 301.656 60.2812C302.635 60.2812 303.823 59.9583 305.219 59.3125V61.8125ZM338.375 60.4688C334.458 62.0104 330.885 62.7812 327.656 62.7812C322.677 62.7812 318.625 61.1042 315.5 57.75C312.396 54.3958 310.844 50.0417 310.844 44.6875C310.844 39.6042 312.24 35.4375 315.031 32.1875C317.823 28.9375 321.406 27.3125 325.781 27.3125C329.823 27.3125 332.927 28.6771 335.094 31.4062C337.281 34.1354 338.375 38.0312 338.375 43.0938V43.6875H317.656C317.656 48.9583 318.573 52.9375 320.406 55.625C322.26 58.3125 325 59.6562 328.625 59.6562C332.438 59.6562 335.688 58.875 338.375 57.3125V60.4688ZM317.781 41.75H331.844L331.875 40.375C331.875 36.4375 331.365 33.5938 330.344 31.8438C329.323 30.0938 327.656 29.2188 325.344 29.2188C323.031 29.2188 321.188 30.3542 319.812 32.625C318.458 34.8958 317.781 37.9375 317.781 41.75Z" fill="#FF4500"/>
</g>
<defs>
<filter id="filter0_d_6_5" x="0.46875" y="14.5938" width="341.906" height="56.5625" filterUnits="userSpaceOnUse" color-interpolation-filters="sRGB">
<feFlood flood-opacity="0" result="BackgroundImageFix"/>
<feColorMatrix in="SourceAlpha" type="matrix" values="0 0 0 0 0 0 0 0 0 0 0 0 0 0 0 0 0 0 127 0" result="hardAlpha"/>
<feOffset dy="4"/>
<feGaussianBlur stdDeviation="2"/>
<feComposite in2="hardAlpha" operator="out"/>
<feColorMatrix type="matrix" values="0 0 0 0 0 0 0 0 0 0 0 0 0 0 0 0 0 0 0.25 0"/>
<feBlend mode="normal" in2="BackgroundImageFix" result="effect1_dropShadow_6_5"/>
<feBlend mode="normal" in="SourceGraphic" in2="effect1_dropShadow_6_5" result="shape"/>
</filter>
</defs>
</svg>
